<svg width="32" height="33" viewBox="0 0 32 33" fill="none" xmlns="http://www.w3.org/2000/svg">
<path d="M26.8033 9.58789H5.07832C4.53294 9.58789 4.09082 10.03 4.09082 10.5754V26.3754C4.09082 26.9208 4.53294 27.3629 5.07832 27.3629H26.8033C27.3487 27.3629 27.7908 26.9208 27.7908 26.3754V10.5754C27.7908 10.03 27.3487 9.58789 26.8033 9.58789Z" stroke="#C6AA58" stroke-width="2.37" stroke-linecap="round" stroke-linejoin="round"/>
<path d="M11.0029 13.5379V9.58789C11.0029 8.27838 11.5231 7.02251 12.4491 6.09655C13.3751 5.17059 14.6309 4.65039 15.9404 4.65039C17.2499 4.65039 18.5058 5.17059 19.4318 6.09655C20.3577 7.02251 20.8779 8.27838 20.8779 9.58789V13.5379" stroke="#C6AA58" stroke-width="2.37" stroke-linecap="round" stroke-linejoin="round"/>
</svg>
