<svg width="16" height="15" viewBox="0 0 16 15" fill="none" xmlns="http://www.w3.org/2000/svg">
<g id="edit 1">
<path id="Vector" d="M15.2874 13.9262H1.11275C0.822105 13.9262 0.576172 14.1721 0.576172 14.4628C0.576172 14.7534 0.822105 14.9994 1.11275 14.9994H15.2874C15.5781 14.9994 15.824 14.7534 15.824 14.4628C15.824 14.1721 15.5781 13.9262 15.2874 13.9262ZM0.59853 9.23112L0.576172 11.7575C0.576172 11.8917 0.620887 12.0482 0.732675 12.1376C0.844463 12.227 0.978608 12.2941 1.11275 12.2941L3.63916 12.2717C3.7733 12.2717 3.90745 12.2047 4.01924 12.1152L12.694 3.44051C12.8952 3.23929 12.8952 2.88157 12.694 2.68035L10.1899 0.176304C9.9887 -0.0249139 9.63098 -0.0249139 9.42976 0.176304L7.68588 1.92019L0.755033 8.85104C0.643245 8.96282 0.59853 9.09697 0.59853 9.23112ZM11.5537 3.06043L10.57 4.04416L8.82611 2.30027L9.80984 1.31654L11.5537 3.06043ZM1.67169 9.45469L8.06595 3.06043L9.80984 4.80432L3.41558 11.1986H1.67169V9.45469Z" fill="#8EA49C"/>
</g>
</svg>
